<svg width="32" height="32" viewBox="0 0 64 64" fill="#343a4a" xmlns="http://www.w3.org/2000/svg">
<path d="M54 46V18C54 13.5817 50.4183 10 46 10H18C13.5817 10 10 13.5817 10 18V54H46V64H2L1.7959 63.9893C0.854346 63.8938 0.1062 63.1457 0.0107422 62.2041L0 62V18C0 8.05888 8.05888 0 18 0H46C55.9411 0 64 8.05888 64 18V46C64 55.9411 55.9411 64 46 64V54C50.4183 54 54 50.4183 54 46Z" />
<path d="M28 64H22L22 25H28L28 64Z" />
<path d="M64 22V28H0V22H64Z" />
<path d="M48 54V60H34V54H48ZM54 48V34C54 30.6863 51.3137 28 48 28H34C30.6863 28 28 30.6863 28 34V48C28 51.3137 30.6863 54 34 54V60L33.6904 59.9961C27.2061 59.8319 22 54.5239 22 48V34C22 27.4761 27.2061 22.1681 33.6904 22.0039L34 22H48C54.6274 22 60 27.3726 60 34V48C60 54.6274 54.6274 60 48 60V54C51.3137 54 54 51.3137 54 48Z" />
</svg>
